<svg width="500" height="500" viewBox="0 0 500 500" fill="none" xmlns="http://www.w3.org/2000/svg">
<path d="M66.2827 227.908C66.2827 222.386 70.7599 217.908 76.2827 217.908H422.922C428.445 217.908 432.922 222.386 432.922 227.908V429.949H66.2827V227.908Z" fill="#6D845A"/>
<path d="M247.927 115.135C249.343 114.421 251.014 114.421 252.43 115.135L418.626 198.94C423.328 201.311 421.641 208.405 416.374 208.405H83.983C78.7161 208.405 77.0289 201.311 81.7318 198.94L247.927 115.135Z" fill="#6D845A"/>
<path d="M79.5 201L420.5 200.5L432 223.822H67.5L79.5 201Z" fill="#6D845A"/>
<path d="M101 68.5H398C402.142 68.5 405.5 71.8579 405.5 76V365.5H93.5V76C93.5 71.8579 96.8579 68.5 101 68.5Z" fill="white" stroke="#6D845A" stroke-width="5"/>
<path d="M246.285 329.995C244.572 328.902 244.572 327.458 246.285 326.365L393.092 232.68C397.15 230.091 406.389 231.352 406.389 234.496V421.864C406.389 425.008 397.15 426.269 393.092 423.679L246.285 329.995Z" fill="#566A3F"/>
<path d="M396.546 424.877V231.483L433 227V430L396.546 424.877Z" fill="#566A3F"/>
<path d="M252.715 327.005C254.428 328.098 254.428 329.542 252.715 330.635L105.908 424.32C101.85 426.909 92.6113 425.648 92.6113 422.504L92.6113 235.136C92.6113 231.992 101.85 230.731 105.908 233.321L252.715 327.005Z" fill="#566A3F"/>
<path d="M102.454 232.123L102.454 425.517L66 430L66 227L102.454 232.123Z" fill="#566A3F"/>
<path d="M247.821 325.055C249.197 324.389 250.803 324.389 252.179 325.055L420.905 406.75C425.684 409.064 424.036 416.25 418.726 416.25H81.2744C75.9637 416.25 74.3155 409.064 79.0954 406.75L247.821 325.055Z" fill="#6D845A"/>
<path d="M76.5 409.678H423.5L433 430H66L76.5 409.678Z" fill="#6D845A"/>
<rect x="231.071" y="248.789" width="37.5809" height="37.5297" rx="10" fill="#6D845A"/>
<path d="M222.642 113.605C222.294 107.855 226.863 103 232.624 103H267.268C273.069 103 277.652 107.919 277.244 113.705L269.541 222.705C269.171 227.941 264.815 232 259.566 232H239.227C233.939 232 229.565 227.883 229.245 222.605L222.642 113.605Z" fill="#6D845A"/>
</svg>
