<svg width="2000" height="500" viewBox="0 0 2000 500" fill="none" xmlns="http://www.w3.org/2000/svg">
<path d="M409.944 328L441.344 180.5H497.344C510.41 180.5 519.944 183.267 525.944 188.8C531.944 194.333 534.944 201.633 534.944 210.7C534.944 216.033 534.077 221.4 532.344 226.8C530.61 232.2 528.177 237.167 525.044 241.7C521.91 246.167 518.177 249.867 513.844 252.8C509.577 255.733 504.877 257.433 499.744 257.9C503.077 258.167 506.11 258.933 508.844 260.2C511.644 261.4 513.877 263.333 515.544 266C517.277 268.6 518.144 272.067 518.144 276.4C518.144 278.4 517.844 280.933 517.244 284C516.71 287.067 516.01 290.433 515.144 294.1C514.344 297.767 513.544 301.433 512.744 305.1C511.944 308.7 511.244 312.067 510.644 315.2C510.11 318.333 509.844 320.9 509.844 322.9C509.844 324.033 509.91 325.067 510.044 326C510.177 326.867 510.377 327.533 510.644 328H484.144C483.677 326.933 483.444 325.3 483.444 323.1C483.444 321.233 483.71 318.9 484.244 316.1C484.777 313.233 485.41 310.2 486.144 307C486.877 303.733 487.61 300.5 488.344 297.3C489.077 294.1 489.677 291.133 490.144 288.4C490.677 285.6 490.944 283.333 490.944 281.6C490.944 277.133 489.41 273.867 486.344 271.8C483.277 269.667 478.91 268.6 473.244 268.6H436.544L450.044 260.8L435.644 328H409.944ZM451.244 255.1L440.744 247.6H478.344C483.544 247.6 488.31 246.333 492.644 243.8C496.977 241.2 500.444 237.767 503.044 233.5C505.644 229.167 506.944 224.3 506.944 218.9C506.944 213.633 505.444 209.433 502.444 206.3C499.444 203.1 494.577 201.5 487.844 201.5H450.944L465.344 188.6L451.244 255.1ZM581.681 330.2C573.815 330.2 566.681 328.6 560.281 325.4C553.948 322.133 548.915 317.233 545.181 310.7C541.515 304.1 539.681 295.833 539.681 285.9C539.681 276.633 541.215 268 544.281 260C547.348 252 551.648 245 557.181 239C562.781 233 569.381 228.333 576.981 225C584.581 221.667 592.881 220 601.881 220C609.015 220 615.415 221.433 621.081 224.3C626.815 227.167 631.348 231.4 634.681 237C638.015 242.533 639.681 249.2 639.681 257C639.681 258.933 639.515 261.233 639.181 263.9C638.915 266.567 638.515 268.867 637.981 270.8L626.181 271.1C626.515 270.1 626.748 268.833 626.881 267.3C627.081 265.7 627.181 264.367 627.181 263.3C627.181 258.767 626.148 254.967 624.081 251.9C622.015 248.767 619.248 246.433 615.781 244.9C612.315 243.3 608.548 242.5 604.481 242.5C598.815 242.5 593.715 243.5 589.181 245.5C584.648 247.5 580.748 250.3 577.481 253.9C574.281 257.5 571.815 261.767 570.081 266.7C568.348 271.567 567.481 276.867 567.481 282.6C567.481 288.333 568.481 293.067 570.481 296.8C572.548 300.467 575.348 303.2 578.881 305C582.481 306.733 586.515 307.6 590.981 307.6C595.915 307.6 600.681 306.533 605.281 304.4C609.881 302.267 613.915 299.1 617.381 294.9C620.848 290.7 623.215 285.6 624.481 279.6L636.781 280.8C634.581 291.467 630.681 300.5 625.081 307.9C619.481 315.233 612.915 320.8 605.381 324.6C597.915 328.333 590.015 330.2 581.681 330.2ZM640.481 328H614.081L636.581 221.8H662.981L640.481 328ZM656.217 371.7L688.117 221.8H714.417L682.617 371.7H656.217ZM726.417 330.2C719.217 330.2 712.717 328.567 706.917 325.3C701.184 321.967 696.651 317.4 693.317 311.6C689.984 305.733 688.317 299.067 688.317 291.6C688.317 288.6 688.484 286.067 688.817 284C689.151 281.867 689.484 280.367 689.817 279.5L702.217 279.2C702.017 280 701.817 281.1 701.617 282.5C701.484 283.833 701.417 284.9 701.417 285.7C701.417 289.967 702.417 293.7 704.417 296.9C706.417 300.1 709.084 302.6 712.417 304.4C715.817 306.133 719.584 307 723.717 307C729.451 307 734.484 305.9 738.817 303.7C743.217 301.5 746.917 298.467 749.917 294.6C752.984 290.733 755.284 286.3 756.817 281.3C758.351 276.3 759.117 270.967 759.117 265.3C759.117 257.5 757.151 251.733 753.217 248C749.351 244.267 744.117 242.4 737.517 242.4C732.851 242.4 728.184 243.533 723.517 245.8C718.851 248 714.784 251.067 711.317 255C707.851 258.933 705.551 263.533 704.417 268.8L691.017 268.2C693.084 258.8 696.951 250.467 702.617 243.2C708.284 235.933 714.984 230.267 722.717 226.2C730.517 222.067 738.551 220 746.817 220C758.484 220 767.951 223.767 775.217 231.3C782.551 238.833 786.217 249.567 786.217 263.5C786.217 272.767 784.784 281.433 781.917 289.5C779.051 297.567 774.951 304.667 769.617 310.8C764.351 316.867 758.051 321.633 750.717 325.1C743.384 328.5 735.284 330.2 726.417 330.2ZM795.981 328L818.481 221.8H844.681L822.181 328H795.981ZM837.581 202.2C833.515 202.2 830.048 201.167 827.181 199.1C824.315 196.967 822.881 194.033 822.881 190.3C822.881 187.3 823.681 184.767 825.281 182.7C826.881 180.567 828.981 178.967 831.581 177.9C834.181 176.767 836.948 176.2 839.881 176.2C843.881 176.2 847.315 177.233 850.181 179.3C853.115 181.367 854.581 184.267 854.581 188C854.581 191 853.781 193.567 852.181 195.7C850.581 197.767 848.481 199.367 845.881 200.5C843.281 201.633 840.515 202.2 837.581 202.2ZM892.825 330.2C881.225 330.2 871.892 326.567 864.825 319.3C857.758 311.967 854.225 301.333 854.225 287.4C854.225 278.267 855.725 269.633 858.725 261.5C861.725 253.367 865.925 246.2 871.325 240C876.792 233.733 883.225 228.833 890.625 225.3C898.025 221.767 906.092 220 914.825 220C922.092 220 928.525 221.567 934.125 224.7C939.792 227.833 944.258 232.2 947.525 237.8C950.792 243.4 952.425 249.9 952.425 257.3C952.425 259.1 952.258 261.2 951.925 263.6C951.658 265.933 951.292 268 950.825 269.8L938.325 270.1C938.592 269.233 938.792 268.1 938.925 266.7C939.125 265.3 939.225 264.2 939.225 263.4C939.225 259.133 938.192 255.433 936.125 252.3C934.125 249.167 931.425 246.733 928.025 245C924.692 243.267 920.958 242.4 916.825 242.4C911.292 242.4 906.325 243.5 901.925 245.7C897.592 247.833 893.892 250.8 890.825 254.6C887.825 258.333 885.525 262.7 883.925 267.7C882.325 272.7 881.525 278 881.525 283.6C881.525 291.4 883.492 297.267 887.425 301.2C891.358 305.067 896.592 307 903.125 307C907.992 307 912.725 305.833 917.325 303.5C921.992 301.167 926.025 297.967 929.425 293.9C932.892 289.767 935.192 285.033 936.325 279.7L949.825 280.3C947.892 289.633 944.058 298.1 938.325 305.7C932.592 313.233 925.725 319.2 917.725 323.6C909.792 328 901.492 330.2 892.825 330.2ZM926.025 328L959.225 171.7H985.625L952.425 328H926.025ZM978.303 328L1009.7 180.5H1065.7C1078.77 180.5 1088.3 183.267 1094.3 188.8C1100.3 194.333 1103.3 201.633 1103.3 210.7C1103.3 216.033 1102.44 221.4 1100.7 226.8C1098.97 232.2 1096.54 237.167 1093.4 241.7C1090.27 246.167 1086.54 249.867 1082.2 252.8C1077.94 255.733 1073.24 257.433 1068.1 257.9C1071.44 258.167 1074.47 258.933 1077.2 260.2C1080 261.4 1082.24 263.333 1083.9 266C1085.64 268.6 1086.5 272.067 1086.5 276.4C1086.5 278.4 1086.2 280.933 1085.6 284C1085.07 287.067 1084.37 290.433 1083.5 294.1C1082.7 297.767 1081.9 301.433 1081.1 305.1C1080.3 308.7 1079.6 312.067 1079 315.2C1078.47 318.333 1078.2 320.9 1078.2 322.9C1078.2 324.033 1078.27 325.067 1078.4 326C1078.54 326.867 1078.74 327.533 1079 328H1052.5C1052.04 326.933 1051.8 325.3 1051.8 323.1C1051.8 321.233 1052.07 318.9 1052.6 316.1C1053.14 313.233 1053.77 310.2 1054.5 307C1055.24 303.733 1055.97 300.5 1056.7 297.3C1057.44 294.1 1058.04 291.133 1058.5 288.4C1059.04 285.6 1059.3 283.333 1059.3 281.6C1059.3 277.133 1057.77 273.867 1054.7 271.8C1051.64 269.667 1047.27 268.6 1041.6 268.6H1004.9L1018.4 260.8L1004 328H978.303ZM1019.6 255.1L1009.1 247.6H1046.7C1051.9 247.6 1056.67 246.333 1061 243.8C1065.34 241.2 1068.8 237.767 1071.4 233.5C1074 229.167 1075.3 224.3 1075.3 218.9C1075.3 213.633 1073.8 209.433 1070.8 206.3C1067.8 203.1 1062.94 201.5 1056.2 201.5H1019.3L1033.7 188.6L1019.6 255.1ZM1121.34 283.4L1125.24 264.7H1199.54L1196.14 269.7C1196.54 268.367 1196.84 267.067 1197.04 265.8C1197.24 264.467 1197.34 262.833 1197.34 260.9C1197.34 257.233 1196.51 253.867 1194.84 250.8C1193.17 247.667 1190.57 245.2 1187.04 243.4C1183.57 241.533 1179.01 240.6 1173.34 240.6C1167.07 240.6 1161.47 241.733 1156.54 244C1151.61 246.2 1147.41 249.333 1143.94 253.4C1140.47 257.467 1137.81 262.2 1135.94 267.6C1134.14 273 1133.24 278.9 1133.24 285.3C1133.24 290.3 1134.14 294.6 1135.94 298.2C1137.74 301.8 1140.51 304.567 1144.24 306.5C1148.04 308.433 1152.97 309.4 1159.04 309.4C1163.84 309.4 1168.01 308.967 1171.54 308.1C1175.14 307.233 1178.17 306.067 1180.64 304.6C1183.11 303.067 1185.07 301.433 1186.54 299.7C1188.07 297.967 1189.11 296.233 1189.64 294.5H1215.94C1214.74 298.967 1212.54 303.333 1209.34 307.6C1206.14 311.8 1202.01 315.633 1196.94 319.1C1191.87 322.5 1185.87 325.233 1178.94 327.3C1172.07 329.3 1164.37 330.3 1155.84 330.3C1145.77 330.3 1137.17 328.4 1130.04 324.6C1122.91 320.8 1117.44 315.533 1113.64 308.8C1109.84 302 1107.94 294.167 1107.94 285.3C1107.94 275.833 1109.67 267.133 1113.14 259.2C1116.61 251.267 1121.41 244.367 1127.54 238.5C1133.74 232.633 1140.91 228.1 1149.04 224.9C1157.24 221.633 1166.01 220 1175.34 220C1185.34 220 1193.84 221.833 1200.84 225.5C1207.84 229.167 1213.21 234.267 1216.94 240.8C1220.67 247.333 1222.54 254.9 1222.54 263.5C1222.54 266.5 1222.24 269.933 1221.64 273.8C1221.04 277.667 1220.31 280.867 1219.44 283.4H1121.34ZM1285.72 330.2C1270.72 330.2 1259.05 326.133 1250.72 318C1242.39 309.867 1238.22 298.9 1238.22 285.1C1238.22 275.367 1239.92 266.533 1243.32 258.6C1246.72 250.6 1251.49 243.733 1257.62 238C1263.75 232.2 1270.95 227.767 1279.22 224.7C1287.55 221.567 1296.62 220 1306.42 220C1316.42 220 1324.75 221.833 1331.42 225.5C1338.15 229.1 1343.19 233.733 1346.52 239.4C1349.85 245.067 1351.52 250.867 1351.52 256.8C1351.52 258.067 1351.45 259.2 1351.32 260.2C1351.25 261.2 1351.15 261.967 1351.02 262.5H1324.82C1324.89 262.167 1324.92 261.8 1324.92 261.4C1324.99 261 1325.02 260.567 1325.02 260.1C1325.02 256.567 1324.25 253.433 1322.72 250.7C1321.19 247.9 1318.79 245.733 1315.52 244.2C1312.32 242.6 1308.12 241.8 1302.92 241.8C1297.19 241.8 1291.95 242.867 1287.22 245C1282.55 247.133 1278.55 250.133 1275.22 254C1271.89 257.8 1269.32 262.233 1267.52 267.3C1265.72 272.367 1264.82 277.833 1264.82 283.7C1264.82 291.7 1266.95 297.833 1271.22 302.1C1275.49 306.3 1281.32 308.4 1288.72 308.4C1294.85 308.4 1299.99 307.5 1304.12 305.7C1308.25 303.833 1311.55 301.367 1314.02 298.3C1316.55 295.167 1318.35 291.767 1319.42 288.1H1345.62C1344.75 293.3 1342.75 298.4 1339.62 303.4C1336.55 308.4 1332.45 312.933 1327.32 317C1322.25 321 1316.22 324.2 1309.22 326.6C1302.22 329 1294.39 330.2 1285.72 330.2ZM1406.88 330.2C1399.01 330.2 1391.88 328.6 1385.48 325.4C1379.14 322.133 1374.11 317.233 1370.38 310.7C1366.71 304.1 1364.88 295.833 1364.88 285.9C1364.88 276.633 1366.41 268 1369.48 260C1372.54 252 1376.84 245 1382.38 239C1387.98 233 1394.58 228.333 1402.18 225C1409.78 221.667 1418.08 220 1427.08 220C1434.21 220 1440.61 221.433 1446.28 224.3C1452.01 227.167 1456.54 231.4 1459.88 237C1463.21 242.533 1464.88 249.2 1464.88 257C1464.88 258.933 1464.71 261.233 1464.38 263.9C1464.11 266.567 1463.71 268.867 1463.18 270.8L1451.38 271.1C1451.71 270.1 1451.94 268.833 1452.08 267.3C1452.28 265.7 1452.38 264.367 1452.38 263.3C1452.38 258.767 1451.34 254.967 1449.28 251.9C1447.21 248.767 1444.44 246.433 1440.98 244.9C1437.51 243.3 1433.74 242.5 1429.68 242.5C1424.01 242.5 1418.91 243.5 1414.38 245.5C1409.84 247.5 1405.94 250.3 1402.68 253.9C1399.48 257.5 1397.01 261.767 1395.28 266.7C1393.54 271.567 1392.68 276.867 1392.68 282.6C1392.68 288.333 1393.68 293.067 1395.68 296.8C1397.74 300.467 1400.54 303.2 1404.08 305C1407.68 306.733 1411.71 307.6 1416.18 307.6C1421.11 307.6 1425.88 306.533 1430.48 304.4C1435.08 302.267 1439.11 299.1 1442.58 294.9C1446.04 290.7 1448.41 285.6 1449.68 279.6L1461.98 280.8C1459.78 291.467 1455.88 300.5 1450.28 307.9C1444.68 315.233 1438.11 320.8 1430.58 324.6C1423.11 328.333 1415.21 330.2 1406.88 330.2ZM1465.68 328H1439.28L1461.78 221.8H1488.18L1465.68 328ZM1551.61 171.7L1518.41 328H1492.21L1525.41 171.7H1551.61ZM1605.91 171.7L1572.71 328H1546.51L1579.71 171.7H1605.91ZM1696.91 330.2C1688.04 330.2 1680.21 328.9 1673.41 326.3C1666.61 323.7 1661.27 319.867 1657.41 314.8C1653.54 309.733 1651.61 303.467 1651.61 296C1651.61 292.8 1651.84 289.933 1652.31 287.4C1652.77 284.867 1653.37 282.1 1654.11 279.1H1680.41C1679.74 281.833 1679.24 284.233 1678.91 286.3C1678.57 288.3 1678.41 290.233 1678.41 292.1C1678.41 297.767 1680.21 301.933 1683.81 304.6C1687.47 307.267 1692.87 308.6 1700.01 308.6C1705.74 308.6 1710.94 307.833 1715.61 306.3C1720.27 304.767 1723.97 302.4 1726.71 299.2C1729.44 296 1730.81 291.9 1730.81 286.9C1730.81 281.5 1728.21 276.967 1723.01 273.3C1717.87 269.633 1711.07 266.3 1702.61 263.3C1696.34 261.1 1690.51 258.4 1685.11 255.2C1679.77 251.933 1675.47 247.967 1672.21 243.3C1668.94 238.567 1667.31 232.933 1667.31 226.4C1667.31 218.867 1668.81 212.133 1671.81 206.2C1674.87 200.267 1679.07 195.233 1684.41 191.1C1689.81 186.967 1696.01 183.833 1703.01 181.7C1710.07 179.5 1717.64 178.4 1725.71 178.4C1734.64 178.4 1742.47 179.7 1749.21 182.3C1756.01 184.9 1761.31 188.667 1765.11 193.6C1768.91 198.533 1770.81 204.5 1770.81 211.5C1770.81 214.367 1770.57 217.2 1770.11 220C1769.64 222.733 1769.11 225.3 1768.51 227.7H1742.21C1742.67 225.633 1743.07 223.567 1743.41 221.5C1743.74 219.433 1743.91 217.4 1743.91 215.4C1743.91 210 1742.11 206.1 1738.51 203.7C1734.91 201.3 1729.61 200.1 1722.61 200.1C1717.01 200.1 1711.97 200.867 1707.51 202.4C1703.11 203.867 1699.61 206.167 1697.01 209.3C1694.47 212.433 1693.21 216.5 1693.21 221.5C1693.21 227.1 1695.81 231.633 1701.01 235.1C1706.21 238.567 1713.07 241.867 1721.61 245C1728.67 247.667 1734.87 250.667 1740.21 254C1745.61 257.267 1749.81 261.2 1752.81 265.8C1755.81 270.333 1757.31 275.8 1757.31 282.2C1757.31 292.467 1754.61 301.2 1749.21 308.4C1743.81 315.533 1736.54 320.967 1727.41 324.7C1718.27 328.367 1708.11 330.2 1696.91 330.2ZM1895.82 274.9C1894.55 281.167 1892.12 287.533 1888.52 294C1884.99 300.467 1880.32 306.467 1874.52 312C1868.79 317.467 1862.02 321.867 1854.22 325.2C1846.42 328.533 1837.62 330.2 1827.82 330.2C1816.35 330.2 1806.95 327.767 1799.62 322.9C1792.35 318.033 1786.95 311.367 1783.42 302.9C1779.95 294.367 1778.22 284.7 1778.22 273.9C1778.22 261.033 1780.05 248.867 1783.72 237.4C1787.45 225.867 1792.75 215.7 1799.62 206.9C1806.55 198.033 1814.82 191.067 1824.42 186C1834.09 180.933 1844.85 178.4 1856.72 178.4C1868.25 178.4 1877.55 180.6 1884.62 185C1891.75 189.4 1896.92 195.033 1900.12 201.9C1903.39 208.7 1905.02 215.833 1905.02 223.3C1905.02 225.167 1904.92 226.967 1904.72 228.7C1904.52 230.433 1904.25 232.067 1903.92 233.6H1877.42C1877.62 232.533 1877.82 231.167 1878.02 229.5C1878.29 227.833 1878.42 226.333 1878.42 225C1878.42 220.2 1877.52 215.967 1875.72 212.3C1873.99 208.567 1871.32 205.633 1867.72 203.5C1864.12 201.3 1859.49 200.2 1853.82 200.2C1845.89 200.2 1838.85 202.4 1832.72 206.8C1826.59 211.2 1821.45 217.033 1817.32 224.3C1813.19 231.567 1810.09 239.6 1808.02 248.4C1805.95 257.2 1804.92 265.967 1804.92 274.7C1804.92 285.567 1807.05 293.933 1811.32 299.8C1815.65 305.667 1822.09 308.6 1830.62 308.6C1835.62 308.6 1840.29 307.667 1844.62 305.8C1848.95 303.933 1852.79 301.433 1856.12 298.3C1859.52 295.1 1862.35 291.5 1864.62 287.5C1866.89 283.433 1868.49 279.233 1869.42 274.9H1895.82Z" fill="#566A3F"/>
<path d="M115.154 239.233C115.154 236.223 117.594 233.784 120.604 233.784H309.508C312.518 233.784 314.957 236.223 314.957 239.233V349.337H115.154V239.233Z" fill="#6D845A"/>
<path d="M214.143 177.776C214.915 177.387 215.825 177.387 216.597 177.776L307.167 223.447C309.729 224.739 308.81 228.604 305.94 228.604H124.8C121.93 228.604 121.01 224.739 123.573 223.447L214.143 177.776Z" fill="#6D845A"/>
<path d="M122.357 224.569L308.188 224.297L314.455 237.006H115.818L122.357 224.569Z" fill="#6D845A"/>
<path d="M134.073 153.5H295.927C297.556 153.5 298.876 154.82 298.876 156.449V313.077H131.124V156.449C131.124 154.82 132.445 153.5 134.073 153.5Z" fill="white" stroke="#6D845A" stroke-width="5"/>
<path d="M213.248 294.867C212.314 294.271 212.314 293.484 213.248 292.888L293.252 241.834C295.463 240.423 300.498 241.11 300.498 242.823V344.931C300.498 346.645 295.463 347.332 293.252 345.921L213.248 294.867Z" fill="#566A3F"/>
<path d="M295.134 346.573V241.181L315 238.739V349.365L295.134 346.573Z" fill="#566A3F"/>
<path d="M216.752 293.237C217.686 293.833 217.686 294.62 216.752 295.216L136.748 346.27C134.537 347.681 129.502 346.993 129.502 345.28V243.172C129.502 241.459 134.537 240.772 136.748 242.183L216.752 293.237Z" fill="#566A3F"/>
<path d="M134.866 241.53V346.922L115 349.365V238.739L134.866 241.53Z" fill="#566A3F"/>
<path d="M214.085 292.174C214.835 291.811 215.71 291.811 216.46 292.174L308.408 336.694C311.013 337.956 310.115 341.872 307.221 341.872H123.324C120.43 341.872 119.532 337.956 122.136 336.694L214.085 292.174Z" fill="#6D845A"/>
<path d="M120.722 338.29H309.823L315 349.365H115L120.722 338.29Z" fill="#6D845A"/>
<path d="M204.957 256.062C204.957 253.052 207.397 250.612 210.407 250.612H219.988C222.997 250.612 225.437 253.052 225.437 256.062V265.615C225.437 268.624 222.997 271.064 219.988 271.064H210.407C207.397 271.064 204.957 268.624 204.957 265.615V256.062Z" fill="#6D845A"/>
<path d="M200.364 176.942C200.174 173.809 202.664 171.163 205.803 171.163H224.683C227.844 171.163 230.342 173.844 230.119 176.997L225.921 236.398C225.72 239.251 223.346 241.463 220.485 241.463H209.401C206.52 241.463 204.136 239.219 203.962 236.343L200.364 176.942Z" fill="#6D845A"/>
</svg>
